<svg xmlns="http://www.w3.org/2000/svg" width="440" height="210" viewBox="0 0 440 210" role="img" aria-labelledby="title desc">
  <title id="title">Languages in Public Repos</title>
  <desc id="desc">Public GitHub API snapshot captured 2026-09-22T09:38:03.346749+00:00. Language percentages aggregate 589310 code bytes in 3 owned public non-fork repositories. Python: 70.58 percent; HTML: 15.52 percent; JavaScript: 8.10 percent; CSS: 3.36 percent; Batchfile: 1.23 percent; Shell: 1.21 percent.</desc>
  <rect x="0.5" y="0.5" width="439" height="209" rx="16" fill="#0d1117" stroke="#164e63"/>
  <g font-family="-apple-system, BlinkMacSystemFont, 'Segoe UI', Arial, sans-serif"><text x="24" y="35" font-size="18" font-weight="600" fill="#7dd3fc">Languages in Public Repos</text><defs><clipPath id="bar"><rect x="24" y="60" width="392" height="11" rx="5.5"/></clipPath></defs><g clip-path="url(#bar)"><rect x="24.0000" y="60" width="276.6809" height="11" fill="#0284c7"/><rect x="300.6809" y="60" width="60.8398" height="11" fill="#38bdf8"/><rect x="361.5207" y="60" width="31.7393" height="11" fill="#7dd3fc"/><rect x="393.2600" y="60" width="13.1826" height="11" fill="#0369a1"/><rect x="406.4426" y="60" width="4.8106" height="11" fill="#0ea5e9"/><rect x="411.2532" y="60" width="4.7468" height="11" fill="#bae6fd"/></g><circle cx="28" cy="95" r="4.3" fill="#0284c7"/><text x="40" y="99" font-size="12.5" fill="#cbd5e1">Python</text><text x="210" y="99" font-size="12.5" text-anchor="end" fill="#94a3b8">70.6%</text><circle cx="227" cy="95" r="4.3" fill="#38bdf8"/><text x="239" y="99" font-size="12.5" fill="#cbd5e1">HTML</text><text x="409" y="99" font-size="12.5" text-anchor="end" fill="#94a3b8">15.5%</text><circle cx="28" cy="121" r="4.3" fill="#7dd3fc"/><text x="40" y="125" font-size="12.5" fill="#cbd5e1">JavaScript</text><text x="210" y="125" font-size="12.5" text-anchor="end" fill="#94a3b8">8.1%</text><circle cx="227" cy="121" r="4.3" fill="#0369a1"/><text x="239" y="125" font-size="12.5" fill="#cbd5e1">CSS</text><text x="409" y="125" font-size="12.5" text-anchor="end" fill="#94a3b8">3.4%</text><circle cx="28" cy="147" r="4.3" fill="#0ea5e9"/><text x="40" y="151" font-size="12.5" fill="#cbd5e1">Batchfile</text><text x="210" y="151" font-size="12.5" text-anchor="end" fill="#94a3b8">1.2%</text><circle cx="227" cy="147" r="4.3" fill="#bae6fd"/><text x="239" y="151" font-size="12.5" fill="#cbd5e1">Shell</text><text x="409" y="151" font-size="12.5" text-anchor="end" fill="#94a3b8">1.2%</text><path d="M24 168H416" stroke="#164e63"/><text x="24" y="191" font-size="10.5" fill="#94a3b8">Code bytes · public non-fork repos · 2026-09-22</text></g>
</svg>
